<svg xmlns="http://www.w3.org/2000/svg" xmlns:xlink="http://www.w3.org/1999/xlink" width="500" zoomAndPan="magnify" viewBox="0 0 375 374.999991" height="500" preserveAspectRatio="xMidYMid meet" version="1.0"><defs><g/><clipPath id="dee8632f01"><path d="M 98.355469 51.410156 L 276.855469 51.410156 L 276.855469 258.410156 L 98.355469 258.410156 Z M 98.355469 51.410156 " clip-rule="nonzero"/></clipPath></defs><g clip-path="url(#dee8632f01)"><path fill="#8c52ff" d="M 182.902344 161.867188 L 135.691406 161.867188 L 135.691406 216.171875 L 98.789062 258.714844 L 98.386719 258.714844 L 98.386719 125.046875 L 135.691406 161.867188 L 135.691406 125.046875 L 214.890625 125.046875 Z M 276.605469 54.066406 L 246.472656 88.710938 L 98.386719 88.710938 L 98.386719 51.410156 L 276.605469 51.410156 Z M 276.605469 54.066406 " fill-opacity="1" fill-rule="nonzero"/></g><g fill="#8c52ff" fill-opacity="1"><g transform="translate(21.221382, 339.508182)"><g><path d="M 14.625 0 L 2.296875 0 L 2.296875 -41.53125 L 14.625 -41.53125 Z M 14.625 0 "/></g></g></g><g fill="#8c52ff" fill-opacity="1"><g transform="translate(38.150571, 339.508182)"><g><path d="M 41.125 0 L 30.53125 0 L 13.765625 -21.421875 C 13.878906 -20.921875 13.984375 -20.5 14.078125 -20.15625 C 14.171875 -19.8125 14.21875 -19.351562 14.21875 -18.78125 L 14.21875 0 L 2.296875 0 L 2.296875 -41.53125 L 12.734375 -41.53125 L 29.828125 -19.875 C 29.640625 -20.445312 29.488281 -20.929688 29.375 -21.328125 C 29.257812 -21.734375 29.203125 -22.226562 29.203125 -22.8125 L 29.203125 -41.53125 L 41.125 -41.53125 Z M 41.125 0 "/></g></g></g><g fill="#8c52ff" fill-opacity="1"><g transform="translate(81.567595, 339.508182)"><g><path d="M 34.203125 -41.53125 L 30.921875 -31.625 L 14.515625 -31.625 L 14.515625 -25.921875 L 29.484375 -25.921875 L 29.484375 -16.359375 L 14.40625 -16.359375 C 14.476562 -16.203125 14.515625 -16.054688 14.515625 -15.921875 C 14.515625 -15.785156 14.515625 -15.625 14.515625 -15.4375 L 14.515625 0 L 2.296875 0 L 2.296875 -41.53125 Z M 34.203125 -41.53125 "/></g></g></g><g fill="#8c52ff" fill-opacity="1"><g transform="translate(116.34729, 339.508182)"><g><path d="M 30.8125 0 L 2.296875 0 L 2.296875 -41.53125 L 14.6875 -41.53125 L 14.6875 -10.3125 L 30.8125 -10.3125 Z M 30.8125 0 "/></g></g></g><g fill="#8c52ff" fill-opacity="1"><g transform="translate(148.593358, 339.508182)"><g><path d="M 41.0625 -17.625 C 41.0625 -13.363281 40.207031 -9.859375 38.5 -7.109375 C 36.789062 -4.367188 34.476562 -2.34375 31.5625 -1.03125 C 28.644531 0.269531 25.320312 0.921875 21.59375 0.921875 C 17.875 0.921875 14.5625 0.269531 11.65625 -1.03125 C 8.757812 -2.34375 6.472656 -4.367188 4.796875 -7.109375 C 3.128906 -9.859375 2.296875 -13.363281 2.296875 -17.625 L 2.296875 -41.53125 L 14.625 -41.53125 L 14.625 -17.625 C 14.625 -14.28125 15.226562 -12.015625 16.4375 -10.828125 C 17.644531 -9.640625 19.363281 -9.046875 21.59375 -9.046875 C 23.863281 -9.046875 25.601562 -9.648438 26.8125 -10.859375 C 28.019531 -12.066406 28.625 -14.320312 28.625 -17.625 L 28.625 -41.53125 L 41.0625 -41.53125 Z M 41.0625 -17.625 "/></g></g></g><g fill="#8c52ff" fill-opacity="1"><g transform="translate(191.952808, 339.508182)"><g><path d="M 34.203125 0 L 2.296875 0 L 2.296875 -41.53125 L 34.203125 -41.53125 L 34.203125 -31.625 L 14.578125 -31.625 L 14.578125 -26.375 L 32.59375 -26.375 L 29.3125 -16.46875 L 14.34375 -16.46875 C 14.5 -16.164062 14.578125 -15.820312 14.578125 -15.4375 L 14.578125 -9.90625 L 34.203125 -9.90625 Z M 34.203125 0 "/></g></g></g><g fill="#8c52ff" fill-opacity="1"><g transform="translate(228.172051, 339.508182)"><g><path d="M 41.125 0 L 30.53125 0 L 13.765625 -21.421875 C 13.878906 -20.921875 13.984375 -20.5 14.078125 -20.15625 C 14.171875 -19.8125 14.21875 -19.351562 14.21875 -18.78125 L 14.21875 0 L 2.296875 0 L 2.296875 -41.53125 L 12.734375 -41.53125 L 29.828125 -19.875 C 29.640625 -20.445312 29.488281 -20.929688 29.375 -21.328125 C 29.257812 -21.734375 29.203125 -22.226562 29.203125 -22.8125 L 29.203125 -41.53125 L 41.125 -41.53125 Z M 41.125 0 "/></g></g></g><g fill="#8c52ff" fill-opacity="1"><g transform="translate(271.589076, 339.508182)"><g><path d="M 37.4375 -31.734375 L 25.625 -31.734375 L 25.625 0 L 13.296875 0 L 13.296875 -31.734375 L 1.4375 -31.734375 L 1.4375 -41.53125 L 37.4375 -41.53125 Z M 37.4375 -31.734375 "/></g></g></g><g fill="#8c52ff" fill-opacity="1"><g transform="translate(310.457106, 339.508182)"><g><path d="M 43.015625 -41.53125 L 27.875 -16.53125 L 27.875 0 L 15.5 0 L 15.5 -16.53125 L 0.28125 -41.53125 L 14.453125 -41.53125 L 20.796875 -28.90625 C 21.054688 -28.40625 21.242188 -27.859375 21.359375 -27.265625 C 21.484375 -26.671875 21.5625 -26.085938 21.59375 -25.515625 C 21.59375 -26.054688 21.648438 -26.648438 21.765625 -27.296875 C 21.878906 -27.953125 22.050781 -28.488281 22.28125 -28.90625 L 28.90625 -41.53125 Z M 43.015625 -41.53125 "/></g></g></g></svg>